<?xml version="1.0" encoding="utf-8"?>
<!-- Generator: Adobe Illustrator 22.1.0, SVG Export Plug-In . SVG Version: 6.00 Build 0)  -->
<svg version="1.1" id="Layer_1" xmlns="http://www.w3.org/2000/svg" xmlns:xlink="http://www.w3.org/1999/xlink" x="0px" y="0px"
	 viewBox="0 0 425.2 425.2" style="enable-background:new 0 0 425.2 425.2;" xml:space="preserve">
<style type="text/css">
	.st0{fill:#6CB060;}
</style>
<circle class="st0" cx="212.6" cy="215.8" r="209.4"/>
<g>
	<path d="M285.1,0c-0.4,0-0.9,0-1.3,0c-2.4,1.4-3.8,3.8-5,6.4c-2,4.4-3.5,9-4.6,13.8c-0.7,3.2-2.3,4.8-5.2,5.4
		c-8.2,1.6-14.1,6.9-18.2,15c-2.6,5-4.6,10.4-6.4,15.8c-5,14.7-8.8,29.9-13.4,44.8c-2.2,7.1-2.3,7-9,7.1c-7.9,0.1-7.3-1.4-7.5,8.6
		c0,3.2,0.8,4.8,3.8,4.6c0.9,0,2.3-0.5,2.6,0.9c0.3,1.2-0.8,2-1.5,2.8c-4.2,5-9.4,8-15.1,9.7c-6.6,2-13.4,3.6-19.8,6.1
		c-16.5,6.4-31.9,15.3-43.8,30.3c-7.3,9.2-12.3,20.1-16.5,31.4c-12.9,34.4-19,70.9-23.8,107.6c-2.3,17.2-3.9,34.6-5.1,51.9
		c-0.6,8.7-1.4,17.3-1.3,26.1c38.7,0,77.5,0,116.2,0c0.4-1.8-0.3-3.5-0.8-5.1c-2.4-7-7.2-10.7-13.3-12.3c-2.4-0.6-2.7-1.5-1.2-3.7
		c2.6-3.7,4.2-8,5.5-12.4c5.7-19.2,7.9-39.3,10.6-59.2c2.1-15.2,5.2-29.9,12.1-43.3c5.1-9.9,11.5-18.5,19.5-25.5
		c2.9-2.5,3-2.5,3.5,1.8c0.3,2.9,0.4,5.8,0.6,8.7c1,18.9,0.9,37.8-0.6,56.7c-1.2,14.7-1.7,29.4-0.5,44.2c1.3,17,4,33.7,7.8,50.2
		c15.5,0,31,0,46.5,0c-1.1-8.8-7.3-16.1-14.8-17.8c-4.5-1-8.8-0.3-13.1,0.8c-2.1,0.5-3,0.1-3.1-2.6c-1.4-21.3-0.4-42.4,3.4-63.3
		c4.4-24.1,8.5-48.3,10.7-72.8c0.9-10.2,3.6-19.3,7.9-28.1c4.2-8.5,7.8-17.3,11.9-25.8c3.2-6.8,3.9-13.6,1.4-20.8
		c-0.9-2.8-1.8-5.7-3-8.4c-3.3-7.8-6.9-15.6-10.2-23.4c-1.7-4.1-1.3-4.5,2.5-4.6c5.7-0.1,5.7-0.1,5.8-6.6c0-0.9,0-1.8,0-2.7
		c0-2.8-0.9-4.3-3.5-4.1c-1.8,0.1-3.5,0-5.3,0c-2.4,0.1-3.1-1.2-2.5-3.8c2-9.1,9.7-16.6,17.9-17.7c7.8-1.1,15.4,0.2,23.1,1.7
		c2.3,0.5,3.5-0.1,4.4-2.6c1.4-4,3-7.9,4.5-11.8c0.6-1.6,0.7-3.1-0.3-4.6C326,52.9,314,37.7,297.5,28.1c-1.7-1-2.7-2.3-3.1-4.5
		c-1-5.7-2.3-11.3-4.4-16.6C288.8,4.2,287.5,1.6,285.1,0z"/>
</g>
</svg>
