<?xml version="1.0" encoding="utf-8"?>
<!-- Generator: Adobe Illustrator 22.1.0, SVG Export Plug-In . SVG Version: 6.00 Build 0)  -->
<svg version="1.1" id="Layer_1" xmlns="http://www.w3.org/2000/svg" xmlns:xlink="http://www.w3.org/1999/xlink" x="0px" y="0px"
	 viewBox="0 0 481.9 418.8" style="enable-background:new 0 0 481.9 418.8;" xml:space="preserve">
<style type="text/css">
	.st0{fill:#6CB060;}
</style>
<circle class="st0" cx="253.9" cy="209.4" r="209.4"/>
<g>
	<path d="M442.5,145.2c4.3-6.7,9.7-12.1,16.3-16.5c3.6-2.4,5.8-2.4,7.7,2c3,6.9,5.4,13.9,3.2,21.5c-0.8,2.8-0.2,5.1,1.5,7.5
		c2,2.7,3.8,5.5,5.7,8.3c4.5,6.8,6.4,14.1,3.3,22.1c-1.3,3.5-1.5,7.2-0.7,10.9c0.7,3.5,0.6,7,0,10.6c-0.9,5.8-3.9,9.8-9.7,11.3
		c-4.6,1.2-8.5,3.3-11.5,7.1c-0.8,1-1.8,1.7-3.1,1.9c-4.2,0.6-15-9-15-13.3c0-0.7,0-1.4,0.1-2.1c0.2-12.8-0.5-14-12.3-19.2
		c-2.5-1.1-4.8-2.3-6.5-4.4c-2.3-2.9-5.2-2.7-8.1-1.4c-3,1.3-5,3.2-4.6,6.9c0.9,8.6,1.3,17.3,1.3,25.9c0,1,0.3,2.2,0.8,3
		c11.1,16,15.3,34.9,20.9,53.1c4.2,13.9,12.2,21.4,26.5,22.4c2.3,0.2,4.5,0.7,6.8,1.1c6.4,1.2,10.3,5.2,12.1,11.3
		c2.4,7.5,1.2,9.1-6.6,9.2c-7.8,0.1-15.6,0-23.3,0.1c-3.1,0-5.8-0.6-8.2-2.9c-3.5-3.4-8-5.2-12.4-7.1c-4.8-2.1-9.2-4.8-12.1-9.2
		c-4-6.2-9.4-11-14.5-16.1c-10.2-10.3-20.7-20.3-30.3-31.2c-6.9-7.8-11.4-16.5-11.4-27.2c0-3.3-0.8-4.7-4.3-3.1
		c-1.1,0.5-2.3,1-3.5,1.1c-10.1,0.2-15.1,6.2-18.7,14.9c-3.1,7.7-7.6,14.7-11.4,22.1c-2.5,4.9-4.2,10.1-4.2,15.7
		c0,8.4,2,11.4,9.9,14.2c4.9,1.8,9.6,3.6,12.3,8.5c3,5.6,2.1,7.3-4.1,7.3c-8.1,0.1-16.3,0-24.4,0.1c-3.2,0-5.3-1.1-6.8-3.9
		c-2-3.7-4.4-7.2-6.6-10.9c-3.7-6-5.2-12.1-2.7-19.2c2.2-6.1,1.2-12.7,0.3-18.9c-1.3-9.3,0.1-17.6,6.2-24.9c2-2.4,2.2-3.7-1.4-4.4
		c-14.9-2.8-28.9-8-42.5-14.6c-0.2-0.1-0.3-0.1-0.5-0.2c-11.5-4.4-13.7-3.4-16.9,8.1c-2.8,10-5.7,20.1-7.9,30.3
		c-2.4,11.2,0.4,22.1,4,32.7c1.4,4.1,5.6,4,8.8,4.9c7.1,2.1,13.1,5.1,16.2,12.4c2.4,5.7,2.1,6.4-3.9,6.5c-6.2,0.1-12.4-0.3-18.6,0.1
		c-5.9,0.4-10.2-1.9-15-5c-17.3-11.6-22.2-28.8-23.6-48c-0.9-11.9-7.1-21.2-14.8-29.8c-1.5-1.7-2.8-2.4-5-1
		c-7.5,4.8-16,7.4-24.3,10.5c-17.4,6.6-32.4,16.4-43.8,31.3c-4.1,5.4-7,11.5-8,18.3c-1,6.4,0.8,9.1,7,11c6.9,2,9.6,5.3,10.4,12.3
		c0.3,2.9-0.7,4.4-3.7,4.4c-9.7,0-19.4,0-29.2-0.1c-2.2,0-3.5-1.3-4.8-2.9c-4.6-5.7-6.8-12.4-7-19.6c-0.3-12.4,1.1-24.7,3.3-36.9
		c1.4-7.5,4.9-13.7,12.1-17.1c21.2-10,32.3-28.8,42.4-48.6c2-4,0.2-4.6-3.2-4.3c-10.4,0.9-19.3,5.5-27.6,11.4
		c-10.7,7.5-20.4,16.4-30,25.3c-10.5,9.8-22.4,16.6-37.1,17.6c-24.8,1.7-37.3-12.6-36-36.4c0.4-8.1,3.2-15.6,8.7-21.8
		c4.3-4.7,9.5-7.3,16.1-5.4c5.5,1.6,6.9,4.4,4.6,9.5c-0.9,2.1-2.3,3.9-3.4,6c-1.3,2.3-2.7,4.6-3.6,7.1c-3.8,10.6,1.3,18.2,12.6,19.2
		c11.9,1,21.6-4,30.6-11c10.9-8.6,20.5-18.7,28.9-29.5c13.4-17,30.7-26.1,51.8-28.9c8.2-1.1,15.5-4.7,23.3-6.9
		c14.9-4.2,30-6.7,45.5-6.3c7.3,0.2,14.1-1,21-3.8c17.5-7.1,35.8-7.1,54.2-3.4c14.4,2.9,28.6,6.5,42.9,9.9
		c8.1,1.9,16.9,1.2,25.2-0.6c15.9-3.5,31.8-6.7,48.2-7c10.7-0.2,21.1,1.5,31,6.1C444.6,138.5,444.6,138.4,442.5,145.2z"/>
</g>
</svg>
